<?xml version="1.0" encoding="utf-8"?>
<!-- Generator: Adobe Illustrator 24.0.2, SVG Export Plug-In . SVG Version: 6.00 Build 0)  -->
<svg version="1.1" id="Layer_1" xmlns="http://www.w3.org/2000/svg" xmlns:xlink="http://www.w3.org/1999/xlink" x="0px" y="0px"
	 viewBox="0 0 100 100" style="enable-background:new 0 0 100 100;" xml:space="preserve">
<style type="text/css">
	.st0{fill:#FFFFFF;}
</style>
<g>
	<path class="st0" d="M80.5,25.5C77.6,9.2,62.1-2.1,45.7,0.3C34.8,1.9,26.9,7.8,22.1,17.6c-3.6,7.5-4.2,15.2-0.8,23
		c1.8,4.2,4,8.3,6.4,12.2C33,61.3,39,69.1,45.4,76.7c1.5,1.8,3,3.5,4.6,5.3c0.2-0.2,0.3-0.3,0.4-0.4c6.8-7.7,13.2-15.6,18.9-24.1
		c3.5-5.2,6.8-10.6,9.2-16.4C80.6,36.1,81.4,30.9,80.5,25.5z M50,43.8c-8.5,0-15.5-6.9-15.5-15.5c0-8.5,6.9-15.5,15.5-15.5
		c8.5,0,15.5,6.9,15.5,15.5C65.5,36.9,58.5,43.8,50,43.8z"/>
	<path class="st0" d="M88.1,86.5c-1,1.7-2.3,3.1-3.8,4.3c-3.4,2.7-7.3,4.4-11.4,5.8c-8.6,2.8-17.5,3.8-26.5,3.4
		c-6.9-0.3-13.7-1.4-20.3-3.8c-4-1.4-7.9-3.2-11.2-6.1c-1.4-1.2-2.6-2.6-3.4-4.3c-1.4-3.1-0.8-6.3,1.6-8.8c1.9-1.9,4.2-2.9,6.7-3.7
		c3.5-1.2,7-1.8,10.6-2.2c1.9-0.2,3.9-0.3,5.8-0.6c0.9-0.1,1.3,0.1,1.7,0.9c-2.4,0.4-4.8,0.8-7.1,1.2c-3.8,0.8-7.5,1.8-10.9,3.6
		c-1.3,0.7-2.6,1.6-3.7,2.6c-2.1,1.9-2,4.1,0,6.1c1.6,1.6,3.5,2.5,5.6,3.4c4,1.6,8.2,2.5,12.4,3.2c7,1.1,14.1,1.4,21.2,1
		c7.1-0.4,14.1-1.3,20.9-3.6c2-0.7,3.9-1.5,5.7-2.7c0.8-0.6,1.5-1.2,2.1-1.9c1.3-1.6,1.4-3.3,0-4.9c-0.8-0.9-1.8-1.8-2.8-2.4
		c-3.1-2-6.5-3.1-10-3.9c-3.1-0.7-6.2-1.2-9.3-1.8c0.3-0.8,0.5-0.9,1.4-0.9c4.5,0.4,9.1,0.8,13.5,1.9c2.1,0.5,4.2,1.2,6.1,2.1
		c1.3,0.6,2.5,1.4,3.6,2.4C89.5,79.5,90,83.1,88.1,86.5z"/>
</g>
</svg>
