<?xml version="1.0" encoding="utf-8"?>
<!-- Generator: Adobe Illustrator 16.0.0, SVG Export Plug-In . SVG Version: 6.00 Build 0)  -->
<!DOCTYPE svg PUBLIC "-//W3C//DTD SVG 1.1//EN" "http://www.w3.org/Graphics/SVG/1.1/DTD/svg11.dtd">
<svg version="1.1" id="Capa_1" xmlns="http://www.w3.org/2000/svg" xmlns:xlink="http://www.w3.org/1999/xlink" x="0px" y="0px"
	 width="100px" height="100px" viewBox="0 0 100 100" enable-background="new 0 0 100 100" xml:space="preserve">
<title>WhatsApp</title>
<g id="Circle_Color">
	<g id="WhatsApp">
		<path fill="#FFFFFF" d="M98.271,86.815c-2.05,6.233-11.871,11.892-16.609,12.657c-5.193,0.956-10.494,0.612-15.512-1.031
			c-4.77-1.609-9.47-3.48-14.063-5.624C27.421,81.271,11.236,54.385,10.035,52.589C8.834,50.79,0,38.132,0,25.014
			c0.142-8.259,3.392-16.1,9.045-21.644c1.662-2.065,4.029-3.251,6.538-3.328h4.7c1.413,0,3.534-0.803,5.583,4.513
			c2.05,5.277,6.962,18.432,7.563,19.732c0.671,1.415,0.671,3.098,0,4.513c-0.637,1.606-1.449,3.098-2.438,4.474
			c-1.273,1.415-2.58,3.288-3.711,4.513c-0.035,0.037-0.071,0.037-0.105,0.076c-1.625,1.186-2.086,3.595-0.991,5.354
			c3.746,6.846,8.375,13.079,13.747,18.471c5.831,5.621,12.51,10.095,19.788,13.231c2.439,1.3,3.854,1.109,5.301-0.687
			c1.449-1.801,6.222-7.728,7.81-10.442c1.625-2.715,3.499-2.256,5.549-1.337c2.05,0.878,14.17,7.38,16.644,8.68
			c2.44,1.299,4.065,1.99,4.666,3.1C100.394,78.477,99.896,82.876,98.271,86.815z"/>
		<g id="whatsApp-2">
			<path fill="#FFFFFF" d="M98.271,86.815c-2.05,6.233-11.871,11.892-16.609,12.657c-5.193,0.956-10.494,0.612-15.512-1.031
				c-4.77-1.609-9.47-3.48-14.063-5.624C27.421,81.271,11.236,54.385,10.035,52.589C8.834,50.79,0,38.132,0,25.014
				c0.142-8.259,3.392-16.1,9.045-21.644c1.662-2.065,4.029-3.251,6.538-3.328h4.7c1.413,0,3.534-0.803,5.583,4.513
				c2.05,5.277,6.962,18.432,7.563,19.732c0.671,1.415,0.671,3.098,0,4.513c-0.637,1.606-1.449,3.098-2.438,4.474
				c-1.273,1.415-2.58,3.288-3.711,4.513c-0.035,0.037-0.071,0.037-0.105,0.076c-1.625,1.186-2.086,3.595-0.991,5.354
				c3.746,6.846,8.375,13.079,13.747,18.471c5.831,5.621,12.51,10.095,19.788,13.231c2.439,1.3,3.854,1.109,5.301-0.687
				c1.449-1.801,6.222-7.728,7.81-10.442c1.625-2.715,3.499-2.256,5.549-1.337c2.05,0.878,14.17,7.38,16.644,8.68
				c2.44,1.299,4.065,1.99,4.666,3.1C100.394,78.477,99.896,82.876,98.271,86.815z"/>
		</g>
	</g>
</g>
</svg>
