<?xml version="1.0" encoding="utf-8"?>
<!-- Generator: Adobe Illustrator 16.0.0, SVG Export Plug-In . SVG Version: 6.00 Build 0)  -->
<!DOCTYPE svg PUBLIC "-//W3C//DTD SVG 1.1//EN" "http://www.w3.org/Graphics/SVG/1.1/DTD/svg11.dtd">
<svg version="1.1" id="Capa_1" xmlns="http://www.w3.org/2000/svg" xmlns:xlink="http://www.w3.org/1999/xlink" x="0px" y="0px"
	 width="100px" height="100px" viewBox="0 0 100 100" enable-background="new 0 0 100 100" xml:space="preserve">
<g id="WhatsApp-9">
	<path fill="#FFFFFF" d="M75.286,61.372c0.481,2.044,0.303,4.177-0.501,6.132c-1.053,2.88-6,5.512-8.393,5.868
		c-2.625,0.444-5.304,0.282-7.839-0.481c-2.41-0.746-4.785-1.618-7.107-2.612c-12.482-5.37-20.643-17.848-21.25-18.685
		c-0.625-0.854-5.072-6.719-5.072-12.834c-0.071-3.893,1.518-7.645,4.357-10.328c0.839-0.96,2.036-1.511,3.322-1.547h2.357
		c0.714,0,1.786-0.373,2.821,2.098c1.036,2.453,3.5,8.568,3.822,9.172c0.339,0.658,0.339,1.44,0,2.098
		c-0.322,0.747-0.732,1.457-1.232,2.08c-0.625,0.658-1.304,1.528-1.875,2.098c-0.018,0.017-0.036,0.017-0.053,0.035
		c-0.821,0.551-1.054,1.671-0.5,2.489c1.893,3.182,4.232,6.08,6.947,8.587c2.946,2.613,6.322,4.692,10,6.15
		c1.232,0.604,1.947,0.516,2.678-0.319c0.732-0.836,3.145-3.592,3.966-4.854c0.803-1.245,1.749-1.049,2.785-0.621
		c1.036,0.407,7.16,3.43,8.41,4.034C74.161,60.536,74.982,60.856,75.286,61.372z"/>
	<path fill="#FFFFFF" d="M93.338,24.84C79.625,1.108,49.179-7.034,25.357,6.619C1.518,20.289-6.661,50.598,7.054,74.313L0,100
		l26.411-6.88c3.661,1.991,7.518,3.484,11.519,4.498c4,1.014,8.125,1.529,12.285,1.529c8.714,0,17.286-2.293,24.839-6.614
		C98.893,78.864,107.071,48.554,93.338,24.84z M79.41,78.722c-7.481,7.447-17.838,12.054-29.267,12.054
		c-7.393,0-14.643-1.991-21-5.743l-1.517-0.889l-15.75,4.088l4.196-15.216l-0.981-1.547c-4.144-6.561-6.34-14.149-6.34-21.902
		C8.768,26.813,27.304,8.361,50.16,8.361c10.983-0.036,21.518,4.319,29.25,12.087c7.769,7.716,12.125,18.204,12.125,29.136
		C91.535,60.963,86.893,71.256,79.41,78.722z"/>
	<g id="whatsApp-10">
		<path fill="#FFFFFF" d="M93.338,24.84C79.625,1.108,49.179-7.034,25.357,6.619C1.518,20.289-6.661,50.598,7.054,74.313L0,100
			l26.411-6.88c3.661,1.991,7.518,3.484,11.519,4.498c4,1.014,8.125,1.529,12.285,1.529c8.714,0,17.286-2.293,24.839-6.614
			C98.893,78.864,107.071,48.554,93.338,24.84z M79.41,78.722c-7.481,7.447-17.838,12.054-29.267,12.054
			c-7.393,0-14.643-1.991-21-5.743l-1.517-0.889l-15.75,4.088l4.196-15.216l-0.981-1.547c-4.144-6.561-6.34-14.149-6.34-21.902
			C8.768,26.813,27.304,8.361,50.16,8.361c10.983-0.036,21.518,4.319,29.25,12.087c7.769,7.716,12.125,18.204,12.125,29.136
			C91.535,60.963,86.893,71.256,79.41,78.722z"/>
		<path fill="#FFFFFF" d="M74.785,67.504c-1.053,2.88-6,5.512-8.393,5.868c-2.625,0.444-5.304,0.282-7.839-0.481
			c-2.41-0.746-4.785-1.618-7.107-2.612c-12.482-5.37-20.643-17.848-21.25-18.685c-0.625-0.854-5.072-6.719-5.072-12.834
			c-0.071-3.893,1.518-7.645,4.357-10.328c0.839-0.96,2.036-1.511,3.322-1.547h2.357c0.714,0,1.786-0.373,2.821,2.098
			c1.036,2.453,3.5,8.568,3.822,9.172c0.339,0.658,0.339,1.44,0,2.098c-0.322,0.747-0.732,1.457-1.232,2.08
			c-0.625,0.658-1.304,1.528-1.875,2.098c-0.018,0.017-0.036,0.017-0.053,0.035c-0.821,0.551-1.054,1.671-0.5,2.489
			c1.893,3.182,4.232,6.08,6.947,8.587c2.946,2.613,6.322,4.692,10,6.15c1.232,0.604,1.947,0.516,2.678-0.319
			c0.732-0.836,3.145-3.592,3.966-4.854c0.803-1.245,1.749-1.049,2.785-0.621c1.036,0.407,7.16,3.43,8.41,4.034
			c1.233,0.604,2.055,0.925,2.358,1.44C75.768,63.416,75.589,65.549,74.785,67.504z"/>
	</g>
</g>
</svg>
